<svg xmlns="http://www.w3.org/2000/svg" viewBox="0 0 500 176" width="500" height="176">
  <style>
    .c { fill: #24292f; }
    text { font-family: ui-monospace, SFMono-Regular, monospace; font-size: 13px; fill: #24292f; }
    .sm { font-size: 12px; fill: #57606a; }
    @media (prefers-color-scheme: dark) {
      .c { fill: #e6edf3; }
      text { fill: #e6edf3; }
      .sm { fill: #8b949e; }
    }
  </style>
  <rect x="12" y="0" width="4" height="14" class="c"/>
  <rect x="16" y="0" width="8" height="7" class="c"/>
  <rect x="16" y="7" width="4" height="7" class="c"/>
  <rect x="24" y="0" width="8" height="14" class="c"/>
  <rect x="32" y="0" width="8" height="14" class="c"/>
  <rect x="40" y="0" width="8" height="14" class="c"/>
  <rect x="48" y="0" width="8" height="7" class="c"/>
  <rect x="52" y="7" width="4" height="7" class="c"/>
  <rect x="56" y="0" width="4" height="14" class="c"/>
  <rect x="4" y="14" width="4" height="7" class="c"/>
  <rect x="8" y="14" width="8" height="7" class="c"/>
  <rect x="12" y="21" width="4" height="7" class="c"/>
  <rect x="16" y="14" width="8" height="14" class="c"/>
  <rect x="24" y="14" width="8" height="14" class="c"/>
  <rect x="32" y="14" width="8" height="14" class="c"/>
  <rect x="40" y="14" width="8" height="14" class="c"/>
  <rect x="48" y="14" width="8" height="14" class="c"/>
  <rect x="56" y="14" width="8" height="7" class="c"/>
  <rect x="56" y="21" width="4" height="7" class="c"/>
  <rect x="64" y="14" width="4" height="7" class="c"/>
  <rect x="16" y="28" width="4" height="7" class="c"/>
  <rect x="24" y="28" width="4" height="7" class="c"/>
  <rect x="44" y="28" width="4" height="7" class="c"/>
  <rect x="52" y="28" width="4" height="7" class="c"/>
  <rect x="12" y="54" width="4" height="14" class="c"/>
  <rect x="16" y="54" width="8" height="7" class="c"/>
  <rect x="16" y="61" width="4" height="7" class="c"/>
  <rect x="24" y="54" width="8" height="14" class="c"/>
  <rect x="32" y="54" width="8" height="14" class="c"/>
  <rect x="40" y="54" width="8" height="14" class="c"/>
  <rect x="48" y="54" width="8" height="7" class="c"/>
  <rect x="52" y="61" width="4" height="7" class="c"/>
  <rect x="56" y="54" width="4" height="14" class="c"/>
  <rect x="4" y="68" width="4" height="7" class="c"/>
  <rect x="8" y="68" width="8" height="7" class="c"/>
  <rect x="12" y="75" width="4" height="7" class="c"/>
  <rect x="16" y="68" width="8" height="14" class="c"/>
  <rect x="24" y="68" width="8" height="14" class="c"/>
  <rect x="32" y="68" width="8" height="14" class="c"/>
  <rect x="40" y="68" width="8" height="14" class="c"/>
  <rect x="48" y="68" width="8" height="14" class="c"/>
  <rect x="56" y="68" width="8" height="7" class="c"/>
  <rect x="56" y="75" width="4" height="7" class="c"/>
  <rect x="64" y="68" width="4" height="7" class="c"/>
  <rect x="16" y="82" width="4" height="7" class="c"/>
  <rect x="24" y="82" width="4" height="7" class="c"/>
  <rect x="44" y="82" width="4" height="7" class="c"/>
  <rect x="52" y="82" width="4" height="7" class="c"/>
  <rect x="12" y="108" width="4" height="14" class="c"/>
  <rect x="16" y="108" width="8" height="7" class="c"/>
  <rect x="16" y="115" width="4" height="7" class="c"/>
  <rect x="24" y="108" width="8" height="14" class="c"/>
  <rect x="32" y="108" width="8" height="14" class="c"/>
  <rect x="40" y="108" width="8" height="14" class="c"/>
  <rect x="48" y="108" width="8" height="7" class="c"/>
  <rect x="52" y="115" width="4" height="7" class="c"/>
  <rect x="56" y="108" width="4" height="14" class="c"/>
  <rect x="4" y="122" width="4" height="7" class="c"/>
  <rect x="8" y="122" width="8" height="7" class="c"/>
  <rect x="12" y="129" width="4" height="7" class="c"/>
  <rect x="16" y="122" width="8" height="14" class="c"/>
  <rect x="24" y="122" width="8" height="14" class="c"/>
  <rect x="32" y="122" width="8" height="14" class="c"/>
  <rect x="40" y="122" width="8" height="14" class="c"/>
  <rect x="48" y="122" width="8" height="14" class="c"/>
  <rect x="56" y="122" width="8" height="7" class="c"/>
  <rect x="56" y="129" width="4" height="7" class="c"/>
  <rect x="64" y="122" width="4" height="7" class="c"/>
  <rect x="16" y="136" width="4" height="7" class="c"/>
  <rect x="24" y="136" width="4" height="7" class="c"/>
  <rect x="44" y="136" width="4" height="7" class="c"/>
  <rect x="52" y="136" width="4" height="7" class="c"/>
  <text x="92" y="10">skills/</text>
  <text x="230" y="10">workflow</text>
  <text x="360" y="10">on demand</text>
  <text x="92" y="64">hooks/</text>
  <text x="230" y="64">enforcement</text>
  <text x="360" y="64">always fires</text>
  <text x="92" y="118">CLAUDE.md</text>
  <text x="230" y="118">philosophy</text>
  <text x="360" y="118">always loaded</text>
  <text x="0" y="168" class="sm">25 skills  ·  6 hooks  ·  1 CLAUDE.md</text>
</svg>